<svg width="100" height="100" viewBox="0 0 100 100" fill="none" xmlns="http://www.w3.org/2000/svg">
  <!-- Background Circle -->
  <circle cx="50" cy="50" r="48" fill="#0F172A" stroke="#E2E8F0" stroke-width="2"/>
  
  <!-- F Letter -->
  <path d="M35 30H65V38H45V46H60V54H45V70H35V30Z" fill="#F0FDFA"/>
  
  <!-- Location Pin -->
  <path d="M75 30C75 28.3431 73.6569 27 72 27C70.3431 27 69 28.3431 69 30C69 31.6569 70.3431 33 72 33C73.6569 33 75 31.6569 75 30Z" fill="#F59E0B"/>
  <path d="M72 20C65.3726 20 60 25.3726 60 32C60 35.7866 61.7744 39.1701 64.5 41.3674L72 50L79.5 41.3674C82.2256 39.1701 84 35.7866 84 32C84 25.3726 78.6274 20 72 20ZM72 36C67.5817 36 64 32.4183 64 28C64 23.5817 67.5817 20 72 20C76.4183 20 80 23.5817 80 28C80 32.4183 76.4183 36 72 36Z" fill="#F59E0B"/>
  
  <!-- Star -->
  <path d="M28 74L30.1433 80.0041H36.4616L31.1591 83.7459L33.3024 89.75L28 86.0082L22.6976 89.75L24.8409 83.7459L19.5384 80.0041H25.8567L28 74Z" fill="#F59E0B"/>
</svg> 