<svg xmlns="http://www.w3.org/2000/svg" xmlns:xlink="http://www.w3.org/1999/xlink" width="500" zoomAndPan="magnify" viewBox="0 0 375 149.999998" height="200" preserveAspectRatio="xMidYMid meet" version="1.0"><defs><g/></defs><g fill="#000000" fill-opacity="1"><g transform="translate(60.380163, 64.082819)"><g><path d="M 15.25 -29.6875 L 22.578125 -29.6875 L 22.578125 -21.609375 L 15.53125 -21.609375 L 15.53125 0 L 4.71875 0 L 4.71875 -21.609375 L 0.234375 -21.609375 L 0.234375 -29.6875 L 4.71875 -29.6875 L 4.71875 -30.484375 C 4.71875 -34.234375 5.84375 -37.207031 8.09375 -39.40625 C 10.351562 -41.613281 13.515625 -42.71875 17.578125 -42.71875 C 18.941406 -42.71875 20.265625 -42.582031 21.546875 -42.3125 C 22.835938 -42.050781 23.898438 -41.65625 24.734375 -41.125 L 22.0625 -33.5 C 21 -34.101562 19.921875 -34.40625 18.828125 -34.40625 C 17.691406 -34.40625 16.8125 -34.0625 16.1875 -33.375 C 15.5625 -32.695312 15.25 -31.695312 15.25 -30.375 Z M 15.25 -29.6875 "/></g></g></g><g fill="#000000" fill-opacity="1"><g transform="translate(78.634626, 64.082819)"><g><path d="M 35.890625 -30.828125 L 35.890625 0 L 25.59375 0 L 25.59375 -3.296875 C 24.457031 -2.046875 23.09375 -1.097656 21.5 -0.453125 C 19.90625 0.191406 18.21875 0.515625 16.4375 0.515625 C 12.457031 0.515625 9.28125 -0.660156 6.90625 -3.015625 C 4.539062 -5.367188 3.359375 -8.894531 3.359375 -13.59375 L 3.359375 -30.828125 L 14.15625 -30.828125 L 14.15625 -15.359375 C 14.15625 -13.046875 14.59375 -11.359375 15.46875 -10.296875 C 16.34375 -9.234375 17.613281 -8.703125 19.28125 -8.703125 C 20.988281 -8.703125 22.378906 -9.296875 23.453125 -10.484375 C 24.535156 -11.679688 25.078125 -13.515625 25.078125 -15.984375 L 25.078125 -30.828125 Z M 35.890625 -30.828125 "/></g></g></g><g fill="#000000" fill-opacity="1"><g transform="translate(113.153201, 64.082819)"><g><path d="M 3.46875 -42.203125 L 14.28125 -42.203125 L 14.28125 0 L 3.46875 0 Z M 3.46875 -42.203125 "/></g></g></g><g fill="#000000" fill-opacity="1"><g transform="translate(126.118987, 64.082819)"><g><path d="M 14.671875 0.515625 C 12.097656 0.515625 9.554688 0.222656 7.046875 -0.359375 C 4.546875 -0.953125 2.539062 -1.722656 1.03125 -2.671875 L 4.265625 -10.0625 C 5.671875 -9.195312 7.335938 -8.503906 9.265625 -7.984375 C 11.203125 -7.472656 13.117188 -7.21875 15.015625 -7.21875 C 16.753906 -7.21875 17.992188 -7.394531 18.734375 -7.75 C 19.472656 -8.113281 19.84375 -8.640625 19.84375 -9.328125 C 19.84375 -10.003906 19.394531 -10.484375 18.5 -10.765625 C 17.613281 -11.054688 16.207031 -11.335938 14.28125 -11.609375 C 11.8125 -11.910156 9.710938 -12.304688 7.984375 -12.796875 C 6.265625 -13.285156 4.78125 -14.191406 3.53125 -15.515625 C 2.28125 -16.847656 1.65625 -18.707031 1.65625 -21.09375 C 1.65625 -23.070312 2.238281 -24.828125 3.40625 -26.359375 C 4.582031 -27.898438 6.296875 -29.113281 8.546875 -30 C 10.804688 -30.894531 13.515625 -31.34375 16.671875 -31.34375 C 18.898438 -31.34375 21.113281 -31.113281 23.3125 -30.65625 C 25.519531 -30.195312 27.359375 -29.550781 28.828125 -28.71875 L 25.59375 -21.390625 C 22.863281 -22.898438 19.90625 -23.65625 16.71875 -23.65625 C 15.007812 -23.65625 13.753906 -23.457031 12.953125 -23.0625 C 12.160156 -22.664062 11.765625 -22.144531 11.765625 -21.5 C 11.765625 -20.78125 12.203125 -20.273438 13.078125 -19.984375 C 13.953125 -19.703125 15.394531 -19.410156 17.40625 -19.109375 C 19.945312 -18.734375 22.050781 -18.296875 23.71875 -17.796875 C 25.382812 -17.304688 26.832031 -16.40625 28.0625 -15.09375 C 29.300781 -13.789062 29.921875 -11.960938 29.921875 -9.609375 C 29.921875 -7.679688 29.332031 -5.945312 28.15625 -4.40625 C 26.976562 -2.875 25.242188 -1.671875 22.953125 -0.796875 C 20.660156 0.078125 17.898438 0.515625 14.671875 0.515625 Z M 14.671875 0.515625 "/></g></g></g><g fill="#000000" fill-opacity="1"><g transform="translate(152.391772, 64.082819)"><g><path d="M 23.546875 -31.34375 C 27.378906 -31.34375 30.457031 -30.203125 32.78125 -27.921875 C 35.113281 -25.648438 36.28125 -22.21875 36.28125 -17.625 L 36.28125 0 L 25.484375 0 L 25.484375 -15.875 C 25.484375 -20.082031 23.796875 -22.1875 20.421875 -22.1875 C 18.554688 -22.1875 17.066406 -21.578125 15.953125 -20.359375 C 14.835938 -19.148438 14.28125 -17.332031 14.28125 -14.90625 L 14.28125 0 L 3.46875 0 L 3.46875 -42.203125 L 14.28125 -42.203125 L 14.28125 -27.984375 C 15.445312 -29.078125 16.828125 -29.910156 18.421875 -30.484375 C 20.015625 -31.054688 21.722656 -31.34375 23.546875 -31.34375 Z M 23.546875 -31.34375 "/></g></g></g><g fill="#000000" fill-opacity="1"><g transform="translate(187.137816, 64.082819)"><g><path d="M 34.984375 -15.359375 C 34.984375 -15.285156 34.925781 -14.394531 34.8125 -12.6875 L 12.40625 -12.6875 C 12.851562 -11.09375 13.726562 -9.867188 15.03125 -9.015625 C 16.34375 -8.160156 17.988281 -7.734375 19.96875 -7.734375 C 21.445312 -7.734375 22.722656 -7.941406 23.796875 -8.359375 C 24.878906 -8.773438 25.972656 -9.457031 27.078125 -10.40625 L 32.765625 -4.5 C 29.765625 -1.15625 25.382812 0.515625 19.625 0.515625 C 16.019531 0.515625 12.851562 -0.164062 10.125 -1.53125 C 7.394531 -2.894531 5.28125 -4.789062 3.78125 -7.21875 C 2.28125 -9.644531 1.53125 -12.394531 1.53125 -15.46875 C 1.53125 -18.5 2.257812 -21.21875 3.71875 -23.625 C 5.1875 -26.039062 7.207031 -27.929688 9.78125 -29.296875 C 12.363281 -30.660156 15.265625 -31.34375 18.484375 -31.34375 C 21.554688 -31.34375 24.34375 -30.707031 26.84375 -29.4375 C 29.34375 -28.164062 31.320312 -26.320312 32.78125 -23.90625 C 34.25 -21.5 34.984375 -18.648438 34.984375 -15.359375 Z M 18.546875 -23.65625 C 16.867188 -23.65625 15.472656 -23.179688 14.359375 -22.234375 C 13.242188 -21.285156 12.535156 -20 12.234375 -18.375 L 24.859375 -18.375 C 24.554688 -20 23.84375 -21.285156 22.71875 -22.234375 C 21.601562 -23.179688 20.210938 -23.65625 18.546875 -23.65625 Z M 18.546875 -23.65625 "/></g></g></g><g fill="#000000" fill-opacity="1"><g transform="translate(218.813012, 64.082819)"><g><path d="M 16.609375 -31.34375 C 21.722656 -31.34375 25.625 -30.175781 28.3125 -27.84375 C 31.007812 -25.507812 32.359375 -21.9375 32.359375 -17.125 L 32.359375 0 L 22.296875 0 L 22.296875 -3.984375 C 20.742188 -0.984375 17.707031 0.515625 13.1875 0.515625 C 10.800781 0.515625 8.734375 0.0976562 6.984375 -0.734375 C 5.242188 -1.566406 3.925781 -2.691406 3.03125 -4.109375 C 2.144531 -5.535156 1.703125 -7.160156 1.703125 -8.984375 C 1.703125 -11.898438 2.820312 -14.164062 5.0625 -15.78125 C 7.300781 -17.394531 10.75 -18.203125 15.40625 -18.203125 L 21.5625 -18.203125 C 21.363281 -21.460938 19.179688 -23.09375 15.015625 -23.09375 C 13.535156 -23.09375 12.035156 -22.851562 10.515625 -22.375 C 9.003906 -21.90625 7.71875 -21.253906 6.65625 -20.421875 L 3.015625 -27.75 C 4.722656 -28.894531 6.796875 -29.78125 9.234375 -30.40625 C 11.679688 -31.03125 14.140625 -31.34375 16.609375 -31.34375 Z M 16.203125 -6.3125 C 17.460938 -6.3125 18.566406 -6.613281 19.515625 -7.21875 C 20.460938 -7.832031 21.144531 -8.722656 21.5625 -9.890625 L 21.5625 -12.5625 L 16.890625 -12.5625 C 13.742188 -12.5625 12.171875 -11.519531 12.171875 -9.4375 C 12.171875 -8.488281 12.53125 -7.726562 13.25 -7.15625 C 13.96875 -6.59375 14.953125 -6.3125 16.203125 -6.3125 Z M 16.203125 -6.3125 "/></g></g></g><g fill="#000000" fill-opacity="1"><g transform="translate(249.692058, 64.082819)"><g><path d="M 13.765625 -27.125 C 14.859375 -28.53125 16.285156 -29.582031 18.046875 -30.28125 C 19.816406 -30.988281 21.835938 -31.34375 24.109375 -31.34375 L 24.109375 -21.609375 C 23.128906 -21.722656 22.316406 -21.78125 21.671875 -21.78125 C 19.359375 -21.78125 17.546875 -21.15625 16.234375 -19.90625 C 14.929688 -18.65625 14.28125 -16.738281 14.28125 -14.15625 L 14.28125 0 L 3.46875 0 L 3.46875 -30.828125 L 13.765625 -30.828125 Z M 13.765625 -27.125 "/></g></g></g><g fill="#000000" fill-opacity="1"><g transform="translate(152.046274, 123.311604)"><g><path d="M 3.203125 5.140625 C 2.296875 5.140625 1.582031 4.65625 1.0625 3.6875 C 0.550781 2.71875 0.226562 1.84375 0.09375 1.0625 C 0.03125 0.738281 0 0.414062 0 0.09375 C 0 -0.226562 0 -0.519531 0 -0.78125 C 0 -1.101562 0 -1.375 0 -1.59375 C 0 -1.820312 0 -2.003906 0 -2.140625 C 0.0625 -4.597656 0.238281 -6.894531 0.53125 -9.03125 C 0.820312 -11.164062 1.195312 -13.269531 1.65625 -15.34375 C 1.78125 -15.863281 1.890625 -16.414062 1.984375 -17 C 2.085938 -17.582031 1.910156 -18.128906 1.453125 -18.640625 C 1.265625 -18.898438 1.21875 -19.160156 1.3125 -19.421875 C 1.40625 -19.679688 1.550781 -19.910156 1.75 -20.109375 C 2.457031 -21.015625 3.003906 -21.96875 3.390625 -22.96875 C 3.785156 -23.96875 4.144531 -25.019531 4.46875 -26.125 C 5.175781 -28.320312 6.046875 -30.8125 7.078125 -33.59375 C 8.117188 -36.382812 9.285156 -39.203125 10.578125 -42.046875 C 11.878906 -44.898438 13.273438 -47.570312 14.765625 -50.0625 C 16.253906 -52.550781 17.835938 -54.640625 19.515625 -56.328125 C 20.035156 -56.710938 20.488281 -56.90625 20.875 -56.90625 C 20.9375 -56.90625 21.015625 -56.890625 21.109375 -56.859375 C 21.210938 -56.828125 21.363281 -56.78125 21.5625 -56.71875 C 22.007812 -56.519531 22.28125 -56.242188 22.375 -55.890625 C 22.476562 -55.535156 22.5 -55.160156 22.4375 -54.765625 C 21.976562 -52.828125 21.179688 -50.578125 20.046875 -48.015625 C 18.921875 -45.460938 17.628906 -42.84375 16.171875 -40.15625 C 14.710938 -37.46875 13.238281 -34.910156 11.75 -32.484375 C 10.257812 -30.054688 8.960938 -28 7.859375 -26.3125 C 6.703125 -24.632812 5.78125 -22.46875 5.09375 -19.8125 C 4.414062 -17.15625 3.878906 -14.453125 3.484375 -11.703125 C 3.097656 -8.953125 2.8125 -6.570312 2.625 -4.5625 C 2.488281 -3.59375 2.40625 -2.601562 2.375 -1.59375 C 2.34375 -0.59375 2.488281 0.390625 2.8125 1.359375 C 2.945312 1.878906 3.238281 2.140625 3.6875 2.140625 C 4.144531 2.140625 4.726562 1.71875 5.4375 0.875 C 6.144531 0.03125 6.628906 -0.550781 6.890625 -0.875 C 9.160156 -3.789062 11.492188 -6.878906 13.890625 -10.140625 C 16.285156 -13.410156 18.550781 -16.535156 20.6875 -19.515625 C 20.8125 -19.773438 21.066406 -20.179688 21.453125 -20.734375 C 21.847656 -21.285156 22.207031 -21.5625 22.53125 -21.5625 C 22.59375 -21.5625 22.816406 -21.492188 23.203125 -21.359375 C 23.660156 -21.171875 23.820312 -20.816406 23.6875 -20.296875 C 23.6875 -19.773438 23.5625 -19.382812 23.3125 -19.125 C 23.113281 -18.738281 22.882812 -18.332031 22.625 -17.90625 C 22.363281 -17.488281 22.101562 -17.085938 21.84375 -16.703125 C 20.8125 -15.410156 19.773438 -14.066406 18.734375 -12.671875 C 17.703125 -11.273438 16.671875 -9.832031 15.640625 -8.34375 C 14.597656 -6.863281 13.539062 -5.410156 12.46875 -3.984375 C 11.40625 -2.554688 10.359375 -1.164062 9.328125 0.1875 C 9.003906 0.707031 8.46875 1.375 7.71875 2.1875 C 6.976562 3 6.203125 3.691406 5.390625 4.265625 C 4.578125 4.847656 3.847656 5.140625 3.203125 5.140625 Z M 11.078125 -34.859375 C 11.078125 -34.921875 11.109375 -34.953125 11.171875 -34.953125 C 11.171875 -34.953125 11.171875 -34.921875 11.171875 -34.859375 C 12.078125 -36.671875 13 -38.5 13.9375 -40.34375 C 14.875 -42.1875 15.828125 -44.015625 16.796875 -45.828125 L 19.421875 -51.078125 L 19.421875 -51.171875 C 19.359375 -51.242188 19.328125 -51.3125 19.328125 -51.375 C 19.328125 -51.238281 19.359375 -51.140625 19.421875 -51.078125 C 19.035156 -51.210938 18.84375 -51.28125 18.84375 -51.28125 C 18.582031 -51.28125 18.257812 -51.019531 17.875 -50.5 C 16.570312 -48.289062 15.351562 -46.070312 14.21875 -43.84375 C 13.09375 -41.613281 12.078125 -39.300781 11.171875 -36.90625 C 10.847656 -36.0625 10.816406 -35.378906 11.078125 -34.859375 Z M 11.078125 -34.859375 "/></g></g></g><g fill="#000000" fill-opacity="1"><g transform="translate(170.884449, 123.311604)"><g><path d="M 4.078125 -4.859375 C 2.910156 -4.859375 1.875 -5.210938 0.96875 -5.921875 C 0.0625 -6.628906 -0.519531 -7.632812 -0.78125 -8.9375 C -0.96875 -9.90625 -1.03125 -10.742188 -0.96875 -11.453125 C -0.84375 -12.816406 -0.457031 -14.390625 0.1875 -16.171875 C 0.84375 -17.953125 1.71875 -19.617188 2.8125 -21.171875 C 3.914062 -22.722656 5.082031 -23.726562 6.3125 -24.1875 C 6.695312 -24.375 7.117188 -24.46875 7.578125 -24.46875 C 8.160156 -24.40625 8.515625 -24.082031 8.640625 -23.5 C 8.773438 -22.71875 8.582031 -22.296875 8.0625 -22.234375 C 6.957031 -22.046875 6.113281 -21.59375 5.53125 -20.875 C 4.945312 -20.164062 4.398438 -19.390625 3.890625 -18.546875 C 2.984375 -16.796875 2.332031 -15.144531 1.9375 -13.59375 C 1.675781 -12.882812 1.546875 -11.945312 1.546875 -10.78125 C 1.546875 -8.90625 2.195312 -7.804688 3.5 -7.484375 C 4.269531 -7.484375 4.914062 -7.578125 5.4375 -7.765625 C 5.957031 -7.960938 6.441406 -8.445312 6.890625 -9.21875 C 7.535156 -10.257812 7.921875 -11.296875 8.046875 -12.328125 C 8.179688 -13.367188 7.894531 -14.4375 7.1875 -15.53125 C 6.800781 -16.1875 6.476562 -16.835938 6.21875 -17.484375 C 6.082031 -17.804688 6.128906 -18.113281 6.359375 -18.40625 C 6.585938 -18.695312 6.863281 -18.875 7.1875 -18.9375 L 10.203125 -18.9375 C 12.015625 -18.9375 13.828125 -19.226562 15.640625 -19.8125 C 16.085938 -19.9375 16.535156 -20.097656 16.984375 -20.296875 C 17.441406 -20.492188 17.898438 -20.65625 18.359375 -20.78125 C 18.804688 -20.90625 19.238281 -21.066406 19.65625 -21.265625 C 20.082031 -21.460938 20.519531 -21.625 20.96875 -21.75 L 22.53125 -22.140625 C 23.050781 -22.140625 23.472656 -21.878906 23.796875 -21.359375 C 24.117188 -20.585938 23.859375 -20.070312 23.015625 -19.8125 C 22.109375 -19.488281 21.203125 -19.164062 20.296875 -18.84375 C 19.390625 -18.519531 18.484375 -18.195312 17.578125 -17.875 C 16.671875 -17.539062 15.75 -17.257812 14.8125 -17.03125 C 13.875 -16.8125 12.882812 -16.640625 11.84375 -16.515625 C 10.9375 -16.378906 10.4375 -16.226562 10.34375 -16.0625 C 10.25 -15.90625 10.265625 -15.40625 10.390625 -14.5625 C 10.773438 -12.6875 10.546875 -10.84375 9.703125 -9.03125 C 9.054688 -7.664062 8.085938 -6.53125 6.796875 -5.625 C 5.890625 -5.113281 4.984375 -4.859375 4.078125 -4.859375 Z M 4.078125 -4.859375 "/></g></g></g><g fill="#000000" fill-opacity="1"><g transform="translate(189.916827, 123.311604)"><g><path d="M 6.125 -3.984375 C 3.40625 -3.984375 1.507812 -4.707031 0.4375 -6.15625 C -0.632812 -7.613281 -1.101562 -9.378906 -0.96875 -11.453125 C -0.96875 -11.773438 -0.953125 -12.050781 -0.921875 -12.28125 C -0.890625 -12.507812 -0.84375 -12.753906 -0.78125 -13.015625 C -0.0625 -15.734375 0.957031 -18.222656 2.28125 -20.484375 C 3.601562 -22.753906 5.335938 -24.828125 7.484375 -26.703125 C 8.640625 -27.671875 9.835938 -28.15625 11.078125 -28.15625 C 11.984375 -28.15625 12.90625 -27.894531 13.84375 -27.375 C 14.78125 -26.863281 15.3125 -26.085938 15.4375 -25.046875 C 15.820312 -22.585938 15.175781 -20.320312 13.5 -18.25 C 13.363281 -18.0625 13.101562 -17.898438 12.71875 -17.765625 C 12.65625 -17.765625 12.625 -17.765625 12.625 -17.765625 C 12.625 -17.703125 12.59375 -17.671875 12.53125 -17.671875 C 12.070312 -17.671875 11.84375 -17.863281 11.84375 -18.25 C 11.78125 -18.570312 11.847656 -18.898438 12.046875 -19.234375 C 12.109375 -19.359375 12.171875 -19.5 12.234375 -19.65625 C 12.296875 -19.820312 12.363281 -19.972656 12.4375 -20.109375 C 12.757812 -20.617188 13 -21.179688 13.15625 -21.796875 C 13.320312 -22.410156 13.335938 -23.039062 13.203125 -23.6875 C 13.078125 -24.988281 12.460938 -25.640625 11.359375 -25.640625 C 10.835938 -25.640625 10.332031 -25.492188 9.84375 -25.203125 C 9.363281 -24.910156 8.960938 -24.601562 8.640625 -24.28125 C 5.210938 -21.238281 2.914062 -17.382812 1.75 -12.71875 C 0.644531 -8.507812 2.101562 -6.40625 6.125 -6.40625 C 6.375 -6.40625 6.566406 -6.4375 6.703125 -6.5 C 6.828125 -6.5 6.9375 -6.5 7.03125 -6.5 C 7.132812 -6.5 7.21875 -6.5 7.28125 -6.5 C 9.550781 -6.820312 11.816406 -7.582031 14.078125 -8.78125 C 16.347656 -9.976562 18.390625 -11.195312 20.203125 -12.4375 C 21.046875 -13.082031 21.867188 -13.742188 22.671875 -14.421875 C 23.484375 -15.097656 24.3125 -15.757812 25.15625 -16.40625 C 25.988281 -17.050781 26.8125 -17.695312 27.625 -18.34375 C 28.4375 -19 29.265625 -19.648438 30.109375 -20.296875 C 30.234375 -20.421875 30.375 -20.546875 30.53125 -20.671875 C 30.695312 -20.804688 30.847656 -20.941406 30.984375 -21.078125 C 31.109375 -21.203125 31.25 -21.3125 31.40625 -21.40625 C 31.570312 -21.507812 31.722656 -21.59375 31.859375 -21.65625 C 32.242188 -21.78125 32.4375 -21.84375 32.4375 -21.84375 C 32.820312 -21.84375 33.113281 -21.679688 33.3125 -21.359375 C 33.632812 -20.972656 33.632812 -20.488281 33.3125 -19.90625 C 33.25 -19.78125 33.117188 -19.617188 32.921875 -19.421875 C 32.859375 -19.359375 32.773438 -19.273438 32.671875 -19.171875 C 32.578125 -19.078125 32.5 -19 32.4375 -18.9375 C 30.300781 -17.125 28.144531 -15.34375 25.96875 -13.59375 C 23.800781 -11.84375 21.519531 -10.191406 19.125 -8.640625 C 17.125 -7.347656 15.117188 -6.3125 13.109375 -5.53125 C 11.097656 -4.757812 8.929688 -4.242188 6.609375 -3.984375 Z M 6.125 -3.984375 "/></g></g></g><g fill="#000000" fill-opacity="1"><g transform="translate(218.6596, 123.311604)"><g><path d="M 0.484375 -8.34375 C -0.804688 -8.34375 -1.519531 -9.125 -1.65625 -10.6875 C -1.65625 -12.101562 -1.347656 -13.617188 -0.734375 -15.234375 C -0.117188 -16.859375 0.65625 -18.414062 1.59375 -19.90625 C 2.539062 -21.394531 3.5 -22.625 4.46875 -23.59375 C 4.726562 -23.914062 5.210938 -24.335938 5.921875 -24.859375 C 6.960938 -25.703125 8.03125 -26.125 9.125 -26.125 C 10.09375 -26.125 11.066406 -25.734375 12.046875 -24.953125 C 12.554688 -24.628906 12.847656 -24.46875 12.921875 -24.46875 C 13.109375 -24.46875 13.398438 -24.726562 13.796875 -25.25 C 14.117188 -25.570312 14.425781 -25.925781 14.71875 -26.3125 C 15.007812 -26.707031 15.28125 -27.097656 15.53125 -27.484375 C 15.789062 -27.867188 16.066406 -28.253906 16.359375 -28.640625 C 16.648438 -29.035156 16.925781 -29.425781 17.1875 -29.8125 C 17.3125 -29.9375 17.4375 -30.097656 17.5625 -30.296875 C 17.695312 -30.492188 17.832031 -30.6875 17.96875 -30.875 C 18.09375 -31.007812 18.203125 -31.171875 18.296875 -31.359375 C 18.398438 -31.554688 18.515625 -31.722656 18.640625 -31.859375 C 19.097656 -32.304688 19.488281 -32.53125 19.8125 -32.53125 C 19.8125 -32.53125 20.003906 -32.46875 20.390625 -32.34375 C 21.035156 -31.945312 21.195312 -31.296875 20.875 -30.390625 C 20.8125 -30.128906 20.726562 -29.898438 20.625 -29.703125 C 20.53125 -29.515625 20.421875 -29.320312 20.296875 -29.125 C 20.035156 -28.675781 19.804688 -28.222656 19.609375 -27.765625 C 19.023438 -26.535156 18.34375 -25.015625 17.5625 -23.203125 C 16.789062 -21.390625 16.128906 -19.5625 15.578125 -17.71875 C 15.035156 -15.875 14.765625 -14.238281 14.765625 -12.8125 C 14.765625 -12.226562 14.957031 -11.9375 15.34375 -11.9375 C 15.539062 -11.9375 15.671875 -11.972656 15.734375 -12.046875 C 16.179688 -12.234375 16.613281 -12.425781 17.03125 -12.625 C 17.457031 -12.820312 17.898438 -13.046875 18.359375 -13.296875 C 18.941406 -13.691406 19.539062 -14.097656 20.15625 -14.515625 C 20.769531 -14.941406 21.367188 -15.410156 21.953125 -15.921875 C 22.398438 -16.242188 22.816406 -16.597656 23.203125 -16.984375 C 23.597656 -17.378906 23.988281 -17.738281 24.375 -18.0625 C 25.082031 -18.769531 25.859375 -19.453125 26.703125 -20.109375 C 26.835938 -20.234375 26.984375 -20.359375 27.140625 -20.484375 C 27.304688 -20.617188 27.453125 -20.75 27.578125 -20.875 C 27.703125 -21.007812 27.960938 -21.207031 28.359375 -21.46875 C 28.484375 -21.53125 28.578125 -21.578125 28.640625 -21.609375 C 28.710938 -21.640625 28.78125 -21.65625 28.84375 -21.65625 C 29.101562 -21.65625 29.328125 -21.554688 29.515625 -21.359375 C 29.972656 -21.097656 30.101562 -20.613281 29.90625 -19.90625 C 29.84375 -19.84375 29.8125 -19.796875 29.8125 -19.765625 C 29.8125 -19.734375 29.78125 -19.679688 29.71875 -19.609375 C 29.65625 -19.546875 29.585938 -19.484375 29.515625 -19.421875 C 29.453125 -19.359375 29.390625 -19.296875 29.328125 -19.234375 C 28.421875 -18.328125 27.125 -17.109375 25.4375 -15.578125 C 23.757812 -14.054688 22.03125 -12.679688 20.25 -11.453125 C 18.46875 -10.222656 16.894531 -9.476562 15.53125 -9.21875 C 15.40625 -9.15625 15.113281 -9.125 14.65625 -9.125 C 13.039062 -9.125 12.234375 -10.0625 12.234375 -11.9375 C 12.234375 -13.238281 12.363281 -14.535156 12.625 -15.828125 C 12.882812 -17.117188 13.175781 -18.414062 13.5 -19.71875 C 12.789062 -19.394531 12.304688 -19.066406 12.046875 -18.734375 C 11.910156 -18.546875 11.742188 -18.351562 11.546875 -18.15625 C 11.359375 -17.96875 11.203125 -17.804688 11.078125 -17.671875 C 9.972656 -16.378906 8.867188 -15.132812 7.765625 -13.9375 C 6.671875 -12.738281 5.503906 -11.585938 4.265625 -10.484375 C 3.816406 -10.097656 3.234375 -9.644531 2.515625 -9.125 C 1.804688 -8.601562 1.128906 -8.34375 0.484375 -8.34375 Z M 1.359375 -11.84375 C 1.742188 -11.84375 2.035156 -11.941406 2.234375 -12.140625 C 3.785156 -13.429688 5.238281 -14.851562 6.59375 -16.40625 C 7.957031 -17.957031 9.285156 -19.546875 10.578125 -21.171875 C 10.648438 -21.234375 10.71875 -21.296875 10.78125 -21.359375 C 10.84375 -21.429688 10.90625 -21.53125 10.96875 -21.65625 C 11.164062 -22.300781 11.035156 -22.753906 10.578125 -23.015625 C 10.066406 -23.335938 9.613281 -23.5 9.21875 -23.5 C 8.894531 -23.5 8.488281 -23.367188 8 -23.109375 C 7.519531 -22.847656 7.148438 -22.585938 6.890625 -22.328125 C 3.847656 -19.679688 1.941406 -16.253906 1.171875 -12.046875 L 1.265625 -11.9375 C 1.328125 -11.9375 1.359375 -11.90625 1.359375 -11.84375 Z M 1.359375 -11.84375 "/></g></g></g><g fill="#000000" fill-opacity="1"><g transform="translate(243.809531, 123.311604)"><g><path d="M 3.203125 5.140625 C 2.296875 5.140625 1.582031 4.65625 1.0625 3.6875 C 0.550781 2.71875 0.226562 1.84375 0.09375 1.0625 C 0.03125 0.738281 0 0.414062 0 0.09375 C 0 -0.226562 0 -0.519531 0 -0.78125 C 0 -1.101562 0 -1.375 0 -1.59375 C 0 -1.820312 0 -2.003906 0 -2.140625 C 0.0625 -4.597656 0.238281 -6.894531 0.53125 -9.03125 C 0.820312 -11.164062 1.195312 -13.269531 1.65625 -15.34375 C 1.78125 -15.863281 1.890625 -16.414062 1.984375 -17 C 2.085938 -17.582031 1.910156 -18.128906 1.453125 -18.640625 C 1.265625 -18.898438 1.21875 -19.160156 1.3125 -19.421875 C 1.40625 -19.679688 1.550781 -19.910156 1.75 -20.109375 C 2.457031 -21.015625 3.003906 -21.96875 3.390625 -22.96875 C 3.785156 -23.96875 4.144531 -25.019531 4.46875 -26.125 C 5.175781 -28.320312 6.046875 -30.8125 7.078125 -33.59375 C 8.117188 -36.382812 9.285156 -39.203125 10.578125 -42.046875 C 11.878906 -44.898438 13.273438 -47.570312 14.765625 -50.0625 C 16.253906 -52.550781 17.835938 -54.640625 19.515625 -56.328125 C 20.035156 -56.710938 20.488281 -56.90625 20.875 -56.90625 C 20.9375 -56.90625 21.015625 -56.890625 21.109375 -56.859375 C 21.210938 -56.828125 21.363281 -56.78125 21.5625 -56.71875 C 22.007812 -56.519531 22.28125 -56.242188 22.375 -55.890625 C 22.476562 -55.535156 22.5 -55.160156 22.4375 -54.765625 C 21.976562 -52.828125 21.179688 -50.578125 20.046875 -48.015625 C 18.921875 -45.460938 17.628906 -42.84375 16.171875 -40.15625 C 14.710938 -37.46875 13.238281 -34.910156 11.75 -32.484375 C 10.257812 -30.054688 8.960938 -28 7.859375 -26.3125 C 6.703125 -24.632812 5.78125 -22.46875 5.09375 -19.8125 C 4.414062 -17.15625 3.878906 -14.453125 3.484375 -11.703125 C 3.097656 -8.953125 2.8125 -6.570312 2.625 -4.5625 C 2.488281 -3.59375 2.40625 -2.601562 2.375 -1.59375 C 2.34375 -0.59375 2.488281 0.390625 2.8125 1.359375 C 2.945312 1.878906 3.238281 2.140625 3.6875 2.140625 C 4.144531 2.140625 4.726562 1.71875 5.4375 0.875 C 6.144531 0.03125 6.628906 -0.550781 6.890625 -0.875 C 9.160156 -3.789062 11.492188 -6.878906 13.890625 -10.140625 C 16.285156 -13.410156 18.550781 -16.535156 20.6875 -19.515625 C 20.8125 -19.773438 21.066406 -20.179688 21.453125 -20.734375 C 21.847656 -21.285156 22.207031 -21.5625 22.53125 -21.5625 C 22.59375 -21.5625 22.816406 -21.492188 23.203125 -21.359375 C 23.660156 -21.171875 23.820312 -20.816406 23.6875 -20.296875 C 23.6875 -19.773438 23.5625 -19.382812 23.3125 -19.125 C 23.113281 -18.738281 22.882812 -18.332031 22.625 -17.90625 C 22.363281 -17.488281 22.101562 -17.085938 21.84375 -16.703125 C 20.8125 -15.410156 19.773438 -14.066406 18.734375 -12.671875 C 17.703125 -11.273438 16.671875 -9.832031 15.640625 -8.34375 C 14.597656 -6.863281 13.539062 -5.410156 12.46875 -3.984375 C 11.40625 -2.554688 10.359375 -1.164062 9.328125 0.1875 C 9.003906 0.707031 8.46875 1.375 7.71875 2.1875 C 6.976562 3 6.203125 3.691406 5.390625 4.265625 C 4.578125 4.847656 3.847656 5.140625 3.203125 5.140625 Z M 11.078125 -34.859375 C 11.078125 -34.921875 11.109375 -34.953125 11.171875 -34.953125 C 11.171875 -34.953125 11.171875 -34.921875 11.171875 -34.859375 C 12.078125 -36.671875 13 -38.5 13.9375 -40.34375 C 14.875 -42.1875 15.828125 -44.015625 16.796875 -45.828125 L 19.421875 -51.078125 L 19.421875 -51.171875 C 19.359375 -51.242188 19.328125 -51.3125 19.328125 -51.375 C 19.328125 -51.238281 19.359375 -51.140625 19.421875 -51.078125 C 19.035156 -51.210938 18.84375 -51.28125 18.84375 -51.28125 C 18.582031 -51.28125 18.257812 -51.019531 17.875 -50.5 C 16.570312 -48.289062 15.351562 -46.070312 14.21875 -43.84375 C 13.09375 -41.613281 12.078125 -39.300781 11.171875 -36.90625 C 10.847656 -36.0625 10.816406 -35.378906 11.078125 -34.859375 Z M 11.078125 -34.859375 "/></g></g></g><path stroke-linecap="butt" transform="matrix(0.75, 0, 0, 0.75, 91.538304, 102.171082)" fill="none" stroke-linejoin="miter" d="M 0.00101109 1.501057 L 70.001015 1.501057 " stroke="#000000" stroke-width="3" stroke-opacity="1" stroke-miterlimit="4"/></svg>