<svg width="500" height="176" viewBox="0 0 500 176" fill="none" xmlns="http://www.w3.org/2000/svg">
  <path d="M66.32 67.74H55V109H45.22V67.74H34V59.3H66.32V67.74Z" fill="black"/>
  <path d="M97.6008 109.46C93.8808 109.46 90.5608 108.74 87.6408 107.3C84.7208 105.82 82.4408 103.74 80.8008 101.06C79.1608 98.34 78.3408 95.18 78.3408 91.58C78.3408 88.02 79.1608 84.9 80.8008 82.22C82.4408 79.5 84.7208 77.4 87.6408 75.92C90.5608 74.44 93.8808 73.7 97.6008 73.7C101.321 73.7 104.641 74.44 107.561 75.92C110.481 77.4 112.761 79.5 114.401 82.22C116.041 84.9 116.861 88.02 116.861 91.58C116.861 95.14 116.041 98.3 114.401 101.06C112.761 103.78 110.481 105.86 107.561 107.3C104.641 108.74 101.321 109.46 97.6008 109.46ZM97.6008 101.02C100.641 101.02 103.061 100.02 104.861 98.02C106.661 96.02 107.561 93.22 107.561 89.62C107.561 86.02 106.661 83.22 104.861 81.22C103.061 79.22 100.641 78.22 97.6008 78.22C94.5608 78.22 92.1408 79.22 90.3408 81.22C88.5408 83.18 87.6408 85.98 87.6408 89.62C87.6408 93.22 88.5408 96.02 90.3408 98.02C92.1408 100.02 94.5608 101.02 97.6008 101.02Z" fill="black"/>
  <path d="M149.704 109.46C146.064 109.46 142.784 108.74 139.864 107.3C136.984 105.86 134.724 103.78 133.084 101.06C131.444 98.34 130.624 95.18 130.624 91.58C130.624 88.02 131.444 84.9 133.084 82.22C134.724 79.5 136.984 77.4 139.864 75.92C142.784 74.44 146.064 73.7 149.704 73.7C154.544 73.7 158.584 75 161.824 77.6C165.064 80.16 167.064 83.7 167.824 88.22H158.244C157.844 86.38 157.024 84.94 155.784 83.9C154.584 82.82 152.904 82.28 150.744 82.28C147.864 82.28 145.584 83.28 143.904 85.28C142.224 87.24 141.384 90.02 141.384 93.62C141.384 97.22 142.224 100.02 143.904 102.02C145.584 103.98 147.864 104.96 150.744 104.96C155.024 104.96 157.664 102.86 158.664 98.66H167.824C167.024 103.02 165.004 106.52 161.764 109.12C158.524 109.34 154.504 109.46 149.704 109.46Z" fill="black"/>
  <path d="M178.007 109V74.16H188.767V109H178.007ZM183.407 70.38C181.527 70.38 179.967 69.88 178.727 68.88C177.527 67.84 176.927 66.56 176.927 65.04C176.927 63.52 177.527 62.26 178.727 61.26C179.967 60.22 181.527 59.7 183.407 59.7C185.287 59.7 186.827 60.2 188.027 61.2C189.267 62.16 189.887 63.4 189.887 64.92C189.887 66.52 189.267 67.84 188.027 68.88C186.827 69.88 185.287 70.38 183.407 70.38Z" fill="black"/>
  <path d="M214.421 109.46C210.701 109.46 207.461 108.76 204.701 107.36C201.941 105.92 199.781 103.88 198.221 101.24C196.661 98.56 195.881 95.42 195.881 91.82C195.881 88.22 196.681 85.08 198.281 82.42C199.921 79.76 202.121 77.74 204.881 76.34C207.641 74.9 210.821 74.18 214.421 74.18C218.021 74.18 221.201 74.9 223.961 76.34C226.721 77.74 228.901 79.76 230.501 82.42C232.141 85.08 232.961 88.22 232.961 91.82C232.961 95.42 232.121 98.56 230.441 101.24C228.801 103.88 226.581 105.92 223.781 107.36C221.021 108.76 217.901 109.46 214.421 109.46ZM214.421 101.26C217.381 101.26 219.721 100.22 221.441 98.14C223.201 96.06 224.081 93.34 224.081 89.98C224.081 86.58 223.221 83.86 221.501 81.82C219.821 79.78 217.501 78.76 214.541 78.76C211.581 78.76 209.221 79.78 207.461 81.82C205.741 83.82 204.881 86.54 204.881 89.98C204.881 93.34 205.721 96.06 207.401 98.14C209.121 100.22 211.461 101.26 214.421 101.26Z" fill="black"/>
  <path d="M264.567 73.7C268.167 73.7 271.127 74.78 273.447 76.94C275.807 79.1 276.987 82.2 276.987 86.24V109H266.407V87.96C266.407 85.68 265.847 83.96 264.727 82.8C263.647 81.6 262.127 81 260.167 81C258.167 81 256.587 81.6 255.427 82.8C254.307 83.96 253.747 85.68 253.747 87.96V109H243.167V74.16H253.747V79.46C254.867 77.78 256.387 76.5 258.307 75.62C260.227 74.68 262.327 73.7 264.567 73.7Z" fill="black"/>
  <path d="M287.163 109V74.16H297.743V109H287.163ZM292.563 70.38C290.683 70.38 289.123 69.88 287.883 68.88C286.683 67.84 286.083 66.56 286.083 65.04C286.083 63.52 286.683 62.26 287.883 61.26C289.123 60.22 290.683 59.7 292.563 59.7C294.443 59.7 295.983 60.2 297.183 61.2C298.423 62.16 299.043 63.4 299.043 64.92C299.043 66.52 298.423 67.84 297.183 68.88C295.983 69.88 294.443 70.38 292.563 70.38Z" fill="black"/>
  <path d="M333.577 74.16V81.92H307.977V74.16H333.577Z" fill="black"/>
  <path d="M362.175 109V103.76C361.015 105.56 359.435 106.92 357.435 107.84C355.475 108.76 353.275 109.22 350.835 109.22C347.795 109.22 345.075 108.5 342.675 107.06C340.315 105.62 338.475 103.56 337.155 100.88C335.835 98.16 335.175 95.02 335.175 91.46C335.175 87.9 335.835 84.78 337.155 82.1C338.515 79.38 340.375 77.32 342.735 75.92C345.135 74.52 347.855 73.82 350.895 73.82C353.295 73.82 355.455 74.26 357.375 75.14C359.335 76.02 360.935 77.34 362.175 79.1V74.16H372.755V109H362.175ZM353.775 101.98C356.735 101.98 359.055 100.96 360.735 98.92C362.415 96.84 363.255 94.14 363.255 90.82C363.255 87.5 362.415 84.82 360.735 82.78C359.055 80.74 356.735 79.72 353.775 79.72C350.815 79.72 348.475 80.74 346.755 82.78C345.075 84.82 344.235 87.5 344.235 90.82C344.235 94.14 345.075 96.84 346.755 98.92C348.475 100.96 350.815 101.98 353.775 101.98Z" fill="black"/>
  <path d="M396.364 109.46C393.684 109.46 391.284 109.12 389.164 108.44C387.044 107.72 385.284 106.7 383.884 105.38C382.524 104.02 381.584 102.42 381.064 100.58H391.384C391.784 101.74 392.484 102.62 393.484 103.22C394.524 103.82 395.804 104.12 397.324 104.12C398.804 104.12 399.904 103.9 400.624 103.46C401.384 102.98 401.764 102.36 401.764 101.6C401.764 100.64 401.264 99.96 400.264 99.56C399.264 99.12 397.644 98.68 395.404 98.24C393.044 97.8 391.084 97.34 389.524 96.86C387.964 96.38 386.584 95.56 385.384 94.4C384.184 93.24 383.584 91.58 383.584 89.42C383.584 87.62 384.104 85.98 385.144 84.5C386.224 83.02 387.784 81.86 389.824 81.02C391.904 80.18 394.364 79.76 397.204 79.76C401.404 79.76 404.684 80.72 407.044 82.64C409.444 84.56 410.784 87.14 411.064 90.38H401.644C401.364 89.22 400.724 88.34 399.724 87.74C398.764 87.14 397.524 86.84 396.004 86.84C394.644 86.84 393.624 87.06 392.944 87.5C392.264 87.9 391.924 88.46 391.924 89.18C391.924 90.14 392.424 90.84 393.424 91.28C394.464 91.72 396.064 92.14 398.224 92.54C400.624 93.02 402.584 93.5 404.104 93.98C405.624 94.46 406.964 95.3 408.124 96.5C409.324 97.66 409.944 99.34 409.984 101.54C409.984 103.38 409.444 105.04 408.364 106.52C407.324 108 405.764 109.14 403.684 109.94C401.644 110.7 399.204 110.58 396.364 109.46Z" fill="black"/>
  <path d="M438.423 109L428.523 93.92V109H417.943V59.3H428.523V89.32L438.363 74.16H450.903L437.463 92.5L451.143 109H438.423Z" fill="black"/>
  <path d="M460.991 109V74.16H471.571V109H460.991ZM466.391 70.38C464.511 70.38 462.951 69.88 461.711 68.88C460.511 67.84 459.911 66.56 459.911 65.04C459.911 63.52 460.511 62.26 461.711 61.26C462.951 60.22 464.511 59.7 466.391 59.7C468.271 59.7 469.811 60.2 471.011 61.2C472.251 62.16 472.871 63.4 472.871 64.92C472.871 66.52 472.251 67.84 471.011 68.88C469.811 69.88 468.271 70.38 466.391 70.38Z" fill="black"/>
  <path d="M139.264 131.06C141.824 131.06 143.964 131.64 145.684 132.8C147.404 133.92 148.424 135.52 148.744 137.6H143.744C143.584 136.72 143.164 136.04 142.484 135.56C141.804 135.08 140.924 134.84 139.844 134.84C138.684 134.84 137.784 135.18 137.144 135.86C136.504 136.5 136.184 137.4 136.184 138.56C136.184 139.68 136.504 140.56 137.144 141.2C137.784 141.84 138.684 142.16 139.844 142.16C140.924 142.16 141.804 141.92 142.484 141.44C143.164 140.96 143.584 140.28 143.744 139.4H148.744C148.424 141.44 147.404 143.04 145.684 144.2C143.964 145.32 141.824 145.88 139.264 145.88C137.344 145.88 135.664 145.52 134.224 144.8C132.784 144.04 131.664 142.98 130.864 141.62C130.104 140.26 129.724 138.7 129.724 136.94C129.724 135.18 130.104 133.62 130.864 132.26C131.664 130.9 132.784 129.86 134.224 129.14C135.664 128.38 137.344 128 139.264 128.02V131.06Z" fill="black"/>
  <path d="M164.047 130.96C166.367 130.96 168.187 131.62 169.507 132.94C170.827 134.26 171.487 136.14 171.487 138.58V145.64H165.207V139.7C165.207 138.5 164.927 137.6 164.367 137C163.807 136.36 163.027 136.04 162.027 136.04C161.027 136.04 160.247 136.36 159.687 137C159.127 137.6 158.847 138.5 158.847 139.7V145.64H152.567V131.24H158.847V133.36C159.407 132.56 160.167 131.94 161.127 131.5C162.087 131.14 163.007 130.96 164.047 130.96Z" fill="black"/>
  <path d="M184.249 130.96C186.569 130.96 188.389 131.62 189.709 132.94C191.029 134.26 191.689 136.14 191.689 138.58V145.64H185.409V139.7C185.409 138.5 185.129 137.6 184.569 137C184.009 136.36 183.229 136.04 182.229 136.04C181.229 136.04 180.449 136.36 179.889 137C179.329 137.6 179.049 138.5 179.049 139.7V145.64H172.769V131.24H179.049V133.36C179.609 132.56 180.369 131.94 181.329 131.5C182.289 131.14 183.209 130.96 184.249 130.96Z" fill="black"/>
  <path d="M198.711 130.96C200.111 130.96 201.291 131.36 202.251 132.16C203.211 132.92 203.811 133.96 204.051 135.28V145.64H197.751V145.64V131.24H198.711V130.96ZM201.111 129.66C199.911 129.66 198.911 129.36 198.111 128.76C197.351 128.16 196.951 127.42 196.911 126.54H201.271C201.271 127.42 200.891 128.18 200.131 128.76C199.371 129.36 198.351 129.66 201.111 129.66ZM208.191 129.66C206.991 129.66 205.991 129.36 205.191 128.76C204.431 128.16 204.051 127.42 204.031 126.54H208.351C208.351 127.42 207.971 128.18 207.211 128.76C206.451 129.36 205.431 129.66 208.191 129.66Z" fill="black"/>
  <path d="M220.311 145.88C218.511 145.88 216.931 145.52 215.571 144.8C214.211 144.08 213.151 143.04 212.391 141.68C211.631 140.28 211.251 138.72 211.251 137C211.251 135.28 211.631 133.74 212.391 132.38C213.151 131.02 214.211 129.96 215.571 129.24C216.931 128.52 218.511 128.16 220.311 128.16C222.111 128.16 223.691 128.52 225.051 129.24C226.411 129.96 227.471 131 228.231 132.34C228.991 133.68 229.371 135.22 229.371 136.96C229.371 138.7 228.991 140.26 228.231 141.62C227.471 142.98 226.411 144.04 225.051 144.76C223.691 145.5 222.111 145.88 220.311 145.88ZM220.311 140.76C221.391 140.76 222.251 140.36 222.891 139.56C223.531 138.76 223.851 137.6 223.851 136.08C223.851 134.56 223.531 133.4 222.891 132.6C222.251 131.8 221.391 131.4 220.311 131.4C219.231 131.4 218.351 131.8 217.691 132.6C217.031 133.4 216.711 134.56 216.711 136.08C216.711 137.6 217.031 138.76 217.691 139.56C218.351 140.36 219.231 140.76 220.311 140.76Z" fill="black"/>
  <path d="M245.631 130.96C247.951 130.96 249.771 131.62 251.091 132.94C252.411 134.26 253.071 136.14 253.071 138.58V145.64H246.791V139.7C246.791 138.5 246.511 137.6 245.951 137C245.391 136.36 244.611 136.04 243.611 136.04C242.611 136.04 241.831 136.36 241.271 137C240.711 137.6 240.431 138.5 240.431 139.7V145.64H234.151V124.74H240.431V133.36C240.991 132.56 241.751 131.94 242.711 131.5C243.671 131.14 244.591 130.96 245.631 130.96Z" fill="black"/>
  <path d="M258.894 129.18C257.774 129.18 256.854 128.86 256.134 128.22C255.454 127.54 255.114 126.72 255.114 125.76C255.114 124.8 255.454 124 256.134 123.36C256.854 122.68 257.774 122.34 258.894 122.34C259.994 122.34 260.894 122.68 261.594 123.36C262.294 124 262.654 124.8 262.654 125.76C262.654 126.72 262.294 127.54 261.594 128.22C260.894 128.86 259.994 129.18 258.894 129.18ZM262.034 131.24V145.64H255.754V131.24H262.034Z" fill="black"/>
  <path d="M276.094 145.88C274.294 145.88 272.714 145.52 271.354 144.8C269.994 144.08 268.934 143.04 268.174 141.68C267.414 140.28 267.034 138.72 267.034 137C267.034 135.28 267.414 133.74 268.174 132.38C268.934 131.02 269.994 129.96 271.354 129.24C272.714 128.52 274.294 128.16 276.094 128.16C277.894 128.16 279.474 128.52 280.834 129.24C282.194 129.96 283.254 131 284.014 132.34C284.774 133.68 285.154 135.22 285.154 136.96C285.154 138.7 284.774 140.26 284.014 141.62C283.254 142.98 282.194 144.04 280.834 144.76C279.474 145.5 277.894 145.88 276.094 145.88ZM276.094 140.76C277.174 140.76 278.034 140.36 278.674 139.56C279.314 138.76 279.634 137.6 279.634 136.08C279.634 134.56 279.314 133.4 278.674 132.6C278.034 131.8 277.174 131.4 276.094 131.4C275.014 131.4 274.134 131.8 273.474 132.6C272.814 133.4 272.494 134.56 272.494 136.08C272.494 137.6 272.814 138.76 273.474 139.56C274.134 140.36 275.014 140.76 276.094 140.76Z" fill="black"/>
  <path d="M297.434 145.88C295.634 145.88 294.054 145.52 292.694 144.8C291.354 144.08 290.294 143.04 289.514 141.68C288.754 140.32 288.374 138.76 288.374 137C288.374 135.28 288.754 133.74 289.514 132.38C290.294 131.02 291.354 129.96 292.694 129.24C294.054 128.52 295.634 128.16 297.434 128.16C299.874 128.16 301.894 128.82 303.494 130.14C305.094 131.46 306.054 133.24 306.374 135.48H299.994C299.754 133.96 298.874 133.2 297.354 133.2C296.314 133.2 295.494 133.6 294.894 134.4C294.294 135.16 293.994 136.28 293.994 137.76C293.994 139.24 294.294 140.38 294.894 141.18C295.494 141.94 296.314 142.32 297.354 142.32C298.874 142.32 299.754 141.56 299.994 140.04H306.374C306.054 142.24 305.094 144 303.494 145.32C301.894 145.7 299.874 145.88 297.434 145.88Z" fill="black"/>
  <path d="M320.814 145.64L316.154 138.4H315.374V145.64H309.094V124.74H315.374V137.02L320.154 131.24H328.154L320.754 139L328.154 145.64H320.814Z" fill="black"/>
  <path d="M343.413 131.24V135.26H331.773V131.24H343.413Z" fill="black"/>
  <path d="M351.733 145.88C350.413 145.88 349.293 145.66 348.373 145.22C347.453 144.74 346.733 144.06 346.213 143.18C345.693 142.3 345.433 141.26 345.433 140.06V131.24H357.073V135.26H350.393V137.06C350.393 137.5 350.513 137.84 350.753 138.08C351.033 138.32 351.393 138.44 351.833 138.44C352.593 138.44 353.053 138.06 353.213 137.3H357.053C356.933 139.26 356.233 140.8 354.953 141.92C353.713 143 352.053 143.54 349.973 143.54C349.833 143.54 349.713 143.54 349.613 143.54C349.553 143.54 349.473 143.52 349.353 143.48C347.573 144.74 349.853 145.36 351.733 145.88Z" fill="black"/>
  <path d="M364.392 145.88C363.272 145.88 362.352 145.56 361.632 144.92C360.952 144.24 360.612 143.4 360.612 142.4C360.612 141.4 360.952 140.56 361.632 139.88C362.352 139.2 363.272 138.86 364.392 138.86C365.492 138.86 366.392 139.2 367.092 139.88C367.792 140.56 368.152 141.4 368.152 142.4C368.152 143.4 367.792 144.24 367.092 144.92C366.392 145.56 365.492 145.88 364.392 145.88Z" fill="black"/>
</svg> 